#N canvas 1 78 910 654 10;
#X obj 2 5 cnv 15 530 400 empty empty novation-ZeRO_SLMkII 5 15 0 18
-191407 -66577 0;
#X obj 131 423 loadbang;
#N canvas 1 78 881 526 INITIALIZE 0;
#X msg 240 228 240 0 32 41 3 3 12 0 4 0 1 \$1 247;
#X obj 240 250 midiout;
#X obj 240 177 tgl 15 0 empty empty empty 17 7 0 10 -262144 -1 -1 1
1;
#X obj 495 249 midiout;
#X text 585 261 clean all screens \;;
#X obj 240 202 t f f;
#X obj 468 202 t b b;
#X obj 468 301 s \$0_init;
#X msg 495 227 240 0 32 41 3 3 18 0 4 0 2 2 1 247;
#X msg 119 165 1;
#X obj 119 187 t f f;
#X obj 119 209 s \$0_fader2screen;
#X obj 468 142 sel 1;
#X obj 468 178 del 100;
#X obj 468 281 del 200;
#X obj 119 67 r \$0_l_bang;
#X obj 139 98 r \$0_initialize_patch;
#X obj 98 328 r \$0_select_device;
#X msg 98 350 midi-properties;
#X obj 98 372 s pd;
#X connect 0 0 1 0;
#X connect 2 0 5 0;
#X connect 5 0 12 0;
#X connect 5 1 0 0;
#X connect 6 0 14 0;
#X connect 6 1 8 0;
#X connect 8 0 3 0;
#X connect 9 0 10 0;
#X connect 10 0 11 0;
#X connect 10 1 2 0;
#X connect 12 0 13 0;
#X connect 13 0 6 0;
#X connect 14 0 7 0;
#X connect 15 0 9 0;
#X connect 16 0 9 0;
#X connect 17 0 18 0;
#X connect 18 0 19 0;
#X restore 10 445 pd INITIALIZE;
#X obj 131 445 s \$0_l_bang;
#X obj 10 41 cnv 15 351 50 empty empty ENCODERS 5 10 0 12 -233017 -66577
0;
#N canvas 149 78 924 434 ENCODERS 0;
#X obj 65 36 r \$0_init;
#X obj 51 183 ENCODER 1 256 1 4 1 ctrl_2;
#X obj 61 203 ENCODER 2 256 1 4 1 ctrl_3;
#X obj 71 223 ENCODER 3 256 1 4 1 ctrl_4;
#X obj 241 163 ENCODER 4 256 1 4 1 ctrl_5;
#X obj 251 183 ENCODER 5 256 1 4 1 ctrl_6;
#X obj 261 203 ENCODER 6 256 1 4 1 ctrl_7;
#X obj 271 223 ENCODER 7 256 1 4 1 ctrl_8;
#X msg 65 87 init \, set 0;
#X obj 41 163 ENCODER 0 256 1 4 1 ctrl_1;
#X floatatom 58 355 5 0 0 0 - - -;
#X floatatom 98 355 5 0 0 0 - - -;
#X floatatom 138 355 5 0 0 0 - - -;
#X floatatom 178 355 5 0 0 0 - - -;
#X floatatom 218 355 5 0 0 0 - - -;
#X floatatom 258 355 5 0 0 0 - - -;
#X floatatom 298 355 5 0 0 0 - - -;
#X floatatom 338 355 5 0 0 0 - - -;
#X text 166 14 encoders send delta msg so the \; range can be defined
in Pd \; see [ENCODER] args \;;
#X text 407 12 [ENCODER] ARGS \; \; 1 knob nr \; 2 steps (range from
0 to steps-1) \; 3 link to LED ring (0-1) \; 4 ring mode (0-4) \; 5
link to screen \; 6 screen label \;;
#X obj 511 359 ENCODER_LEDS;
#X obj 33 397 outlet;
#X obj 93 397 outlet;
#X obj 153 397 outlet;
#X obj 213 397 outlet;
#X obj 273 397 outlet;
#X obj 333 397 outlet;
#X obj 393 397 outlet;
#X obj 453 397 outlet;
#X obj 615 286 s _OSC_from_pd;
#X msg 542 126 0 \$1;
#X msg 552 146 1 \$1;
#X msg 562 166 2 \$1;
#X msg 572 186 3 \$1;
#X msg 612 126 4 \$1;
#X msg 622 146 5 \$1;
#X msg 632 166 6 \$1;
#X msg 642 186 7 \$1;
#X obj 741 236 tgl 15 0 empty empty empty 17 7 0 10 -262144 -1 -1 1
1;
#X obj 615 258 spigot;
#X obj 741 214 r _OSC_offon;
#X obj 615 230 oscformat ZeRO enc;
#X connect 0 0 8 0;
#X connect 1 0 11 0;
#X connect 1 1 31 0;
#X connect 2 0 12 0;
#X connect 2 1 32 0;
#X connect 3 0 13 0;
#X connect 3 1 33 0;
#X connect 4 0 14 0;
#X connect 4 1 34 0;
#X connect 5 0 15 0;
#X connect 5 1 35 0;
#X connect 6 0 16 0;
#X connect 6 1 36 0;
#X connect 7 0 17 0;
#X connect 7 1 37 0;
#X connect 8 0 6 0;
#X connect 8 0 7 0;
#X connect 8 0 5 0;
#X connect 8 0 4 0;
#X connect 8 0 3 0;
#X connect 8 0 2 0;
#X connect 8 0 1 0;
#X connect 8 0 9 0;
#X connect 9 0 10 0;
#X connect 9 1 30 0;
#X connect 10 0 21 0;
#X connect 11 0 22 0;
#X connect 12 0 23 0;
#X connect 13 0 24 0;
#X connect 14 0 25 0;
#X connect 15 0 26 0;
#X connect 16 0 27 0;
#X connect 17 0 28 0;
#X connect 30 0 41 0;
#X connect 31 0 41 0;
#X connect 32 0 41 0;
#X connect 33 0 41 0;
#X connect 34 0 41 0;
#X connect 35 0 41 0;
#X connect 36 0 41 0;
#X connect 37 0 41 0;
#X connect 38 0 39 1;
#X connect 39 0 29 0;
#X connect 40 0 38 0;
#X connect 41 0 39 0;
#X coords 0 -1 1 1 325 25 2 50 350;
#X restore 25 60 pd ENCODERS;
#X obj 10 101 cnv 15 351 50 empty empty KNOBS 5 10 0 12 -233017 -66577
0;
#X obj 10 161 cnv 15 125 70 empty empty PADS 5 10 0 12 -233017 -66577
0;
#X obj 635 105 PADS;
#X obj 635 167 unpack;
#X floatatom 25 185 5 0 0 1 pad_id - -;
#X floatatom 25 205 5 0 0 1 value - -;
#X obj 10 236 cnv 15 509 90 empty empty BUTTONS 5 10 0 12 -233017 -66577
0;
#N canvas 1 78 716 378 BUTTONS 0;
#N canvas 1 78 1364 689 BUTTONS 0;
#X obj 15 206 tgl 15 0 empty empty empty 17 7 0 10 -262144 -1 -1 0
1;
#X obj 47 375 pack 0 24 10;
#X obj 47 397 s \$0_CC_out;
#X obj 45 206 tgl 15 0 empty empty empty 17 7 0 10 -262144 -1 -1 0
1;
#X obj 77 447 s \$0_CC_out;
#X obj 75 206 tgl 15 0 empty empty empty 17 7 0 10 -262144 -1 -1 0
1;
#X obj 107 497 s \$0_CC_out;
#X obj 105 206 tgl 15 0 empty empty empty 17 7 0 10 -262144 -1 -1 0
1;
#X obj 137 547 s \$0_CC_out;
#X obj 135 206 tgl 15 0 empty empty empty 17 7 0 10 -262144 -1 -1 0
1;
#X obj 167 397 s \$0_CC_out;
#X obj 165 206 tgl 15 0 empty empty empty 17 7 0 10 -262144 -1 -1 0
1;
#X obj 197 447 s \$0_CC_out;
#X obj 195 206 tgl 15 0 empty empty empty 17 7 0 10 -262144 -1 -1 0
1;
#X obj 227 497 s \$0_CC_out;
#X obj 225 206 tgl 15 0 empty empty empty 17 7 0 10 -262144 -1 -1 0
1;
#X obj 257 547 s \$0_CC_out;
#X obj 15 226 tgl 15 0 empty empty empty 17 7 0 10 -262144 -1 -1 0
1;
#X obj 47 607 s \$0_CC_out;
#X obj 45 226 tgl 15 0 empty empty empty 17 7 0 10 -262144 -1 -1 0
1;
#X obj 77 657 s \$0_CC_out;
#X obj 75 226 tgl 15 0 empty empty empty 17 7 0 10 -262144 -1 -1 0
1;
#X obj 107 707 s \$0_CC_out;
#X obj 105 226 tgl 15 0 empty empty empty 17 7 0 10 -262144 -1 -1 0
1;
#X obj 137 757 s \$0_CC_out;
#X obj 135 226 tgl 15 0 empty empty empty 17 7 0 10 -262144 -1 -1 0
1;
#X obj 167 607 s \$0_CC_out;
#X obj 165 226 tgl 15 0 empty empty empty 17 7 0 10 -262144 -1 -1 0
1;
#X obj 197 657 s \$0_CC_out;
#X obj 195 226 tgl 15 0 empty empty empty 17 7 0 10 -262144 -1 -1 0
1;
#X obj 227 707 s \$0_CC_out;
#X obj 225 226 tgl 15 0 empty empty empty 17 7 0 10 -262144 -1 -1 0
1;
#X obj 257 757 s \$0_CC_out;
#X obj 77 425 pack 0 25 10;
#X obj 107 475 pack 0 26 10;
#X obj 137 525 pack 0 27 10;
#X obj 167 375 pack 0 28 10;
#X obj 197 425 pack 0 29 10;
#X obj 227 475 pack 0 30 10;
#X obj 257 525 pack 0 31 10;
#X obj 47 585 pack 0 32 10;
#X obj 77 635 pack 0 33 10;
#X obj 107 685 pack 0 34 10;
#X obj 137 735 pack 0 35 10;
#X obj 167 585 pack 0 36 10;
#X obj 197 635 pack 0 37 10;
#X obj 227 685 pack 0 38 10;
#X obj 257 735 pack 0 39 10;
#X obj 269 206 tgl 15 0 empty empty empty 17 7 0 10 -262144 -1 -1 0
1;
#X obj 327 397 s \$0_CC_out;
#X obj 299 206 tgl 15 0 empty empty empty 17 7 0 10 -262144 -1 -1 0
1;
#X obj 357 447 s \$0_CC_out;
#X obj 329 206 tgl 15 0 empty empty empty 17 7 0 10 -262144 -1 -1 0
1;
#X obj 387 497 s \$0_CC_out;
#X obj 359 206 tgl 15 0 empty empty empty 17 7 0 10 -262144 -1 -1 0
1;
#X obj 417 547 s \$0_CC_out;
#X obj 389 206 tgl 15 0 empty empty empty 17 7 0 10 -262144 -1 -1 0
1;
#X obj 447 397 s \$0_CC_out;
#X obj 419 206 tgl 15 0 empty empty empty 17 7 0 10 -262144 -1 -1 0
1;
#X obj 477 447 s \$0_CC_out;
#X obj 449 206 tgl 15 0 empty empty empty 17 7 0 10 -262144 -1 -1 0
1;
#X obj 507 497 s \$0_CC_out;
#X obj 479 206 tgl 15 0 empty empty empty 17 7 0 10 -262144 -1 -1 0
1;
#X obj 537 547 s \$0_CC_out;
#X obj 269 226 tgl 15 0 empty empty empty 17 7 0 10 -262144 -1 -1 0
1;
#X obj 327 607 s \$0_CC_out;
#X obj 299 226 tgl 15 0 empty empty empty 17 7 0 10 -262144 -1 -1 0
1;
#X obj 357 657 s \$0_CC_out;
#X obj 329 226 tgl 15 0 empty empty empty 17 7 0 10 -262144 -1 -1 0
1;
#X obj 387 707 s \$0_CC_out;
#X obj 359 226 tgl 15 0 empty empty empty 17 7 0 10 -262144 -1 -1 0
1;
#X obj 417 757 s \$0_CC_out;
#X obj 389 226 tgl 15 0 empty empty empty 17 7 0 10 -262144 -1 -1 0
1;
#X obj 447 607 s \$0_CC_out;
#X obj 419 226 tgl 15 0 empty empty empty 17 7 0 10 -262144 -1 -1 0
1;
#X obj 477 657 s \$0_CC_out;
#X obj 449 226 tgl 15 0 empty empty empty 17 7 0 10 -262144 -1 -1 0
1;
#X obj 507 707 s \$0_CC_out;
#X obj 479 226 tgl 15 0 empty empty empty 17 7 0 10 -262144 -1 -1 0
1;
#X obj 537 757 s \$0_CC_out;
#X obj 327 375 pack 0 40 10;
#X obj 357 425 pack 0 41 10;
#X obj 387 475 pack 0 42 10;
#X obj 417 525 pack 0 43 10;
#X obj 447 375 pack 0 44 10;
#X obj 477 425 pack 0 45 10;
#X obj 507 475 pack 0 46 10;
#X obj 537 525 pack 0 47 10;
#X obj 327 585 pack 0 48 10;
#X obj 357 635 pack 0 49 10;
#X obj 387 685 pack 0 50 10;
#X obj 417 735 pack 0 51 10;
#X obj 447 585 pack 0 52 10;
#X obj 477 635 pack 0 53 10;
#X obj 507 685 pack 0 54 10;
#X obj 537 735 pack 0 55 10;
#X obj 327 296 tgl 15 0 empty empty empty 17 7 0 10 -262144 -1 -1 0
1;
#X obj 587 397 s \$0_CC_out;
#X obj 357 296 tgl 15 0 empty empty empty 17 7 0 10 -262144 -1 -1 0
1;
#X obj 617 447 s \$0_CC_out;
#X obj 387 296 tgl 15 0 empty empty empty 17 7 0 10 -262144 -1 -1 0
1;
#X obj 647 497 s \$0_CC_out;
#X obj 417 296 tgl 15 0 empty empty empty 17 7 0 10 -262144 -1 -1 0
1;
#X obj 677 547 s \$0_CC_out;
#X obj 447 296 tgl 15 0 empty empty empty 17 7 0 10 -262144 -1 -1 0
1;
#X obj 707 397 s \$0_CC_out;
#X obj 477 296 tgl 15 0 empty empty empty 17 7 0 10 -262144 -1 -1 0
1;
#X obj 737 447 s \$0_CC_out;
#X obj 587 375 pack 0 72 10;
#X obj 617 425 pack 0 73 10;
#X obj 647 475 pack 0 74 10;
#X obj 677 525 pack 0 75 10;
#X obj 707 375 pack 0 76 10;
#X obj 737 425 pack 0 77 10;
#X obj 670 231 tgl 15 0 empty empty empty 17 7 0 10 -262144 -1 -1 0
1;
#X obj 680 332 s \$0_CC_out;
#X obj 680 310 pack 0 79 10;
#X obj 38 78 ctlin;
#X obj 38 103 swap;
#X obj 38 125 stripnote;
#X obj 38 155 route 24 25 26 27 28 29 30 31 32 33 34 35 36 37 38 39
40 41 42 43 44 45 46 47 48 49 50 51 52 53 54 55;
#X obj 824 687 outlet;
#X obj 824 525 r \$0_CC_out;
#X obj 824 619 swap;
#X obj 824 641 pack;
#X obj 824 577 unpack 0 0;
#X obj 881 599 - 24;
#X text 825 705 button_id + value \;;
#X obj 157 17 inlet;
#X obj 157 89 unpack;
#X text 154 -1 button_id + value \;;
#X obj 157 111 + 24;
#X obj 157 133 pack;
#X obj 157 63 list split 2;
#X obj 210 89 list;
#X msg 472 37 32;
#X obj 472 59 t f b;
#X obj 472 81 until;
#X obj 472 103 f 0;
#X obj 472 125 t f f;
#X obj 512 125 + 1;
#X msg 472 147 \$1 0;
#X obj 157 40 route list clear;
#X msg 519 87 0;
#X obj 968 579 ctlout;
#X obj 824 551 t a a;
#X connect 0 0 1 0;
#X connect 1 0 2 0;
#X connect 3 0 33 0;
#X connect 5 0 34 0;
#X connect 7 0 35 0;
#X connect 9 0 36 0;
#X connect 11 0 37 0;
#X connect 13 0 38 0;
#X connect 15 0 39 0;
#X connect 17 0 40 0;
#X connect 19 0 41 0;
#X connect 21 0 42 0;
#X connect 23 0 43 0;
#X connect 25 0 44 0;
#X connect 27 0 45 0;
#X connect 29 0 46 0;
#X connect 31 0 47 0;
#X connect 33 0 4 0;
#X connect 34 0 6 0;
#X connect 35 0 8 0;
#X connect 36 0 10 0;
#X connect 37 0 12 0;
#X connect 38 0 14 0;
#X connect 39 0 16 0;
#X connect 40 0 18 0;
#X connect 41 0 20 0;
#X connect 42 0 22 0;
#X connect 43 0 24 0;
#X connect 44 0 26 0;
#X connect 45 0 28 0;
#X connect 46 0 30 0;
#X connect 47 0 32 0;
#X connect 48 0 80 0;
#X connect 50 0 81 0;
#X connect 52 0 82 0;
#X connect 54 0 83 0;
#X connect 56 0 84 0;
#X connect 58 0 85 0;
#X connect 60 0 86 0;
#X connect 62 0 87 0;
#X connect 64 0 88 0;
#X connect 66 0 89 0;
#X connect 68 0 90 0;
#X connect 70 0 91 0;
#X connect 72 0 92 0;
#X connect 74 0 93 0;
#X connect 76 0 94 0;
#X connect 78 0 95 0;
#X connect 80 0 49 0;
#X connect 81 0 51 0;
#X connect 82 0 53 0;
#X connect 83 0 55 0;
#X connect 84 0 57 0;
#X connect 85 0 59 0;
#X connect 86 0 61 0;
#X connect 87 0 63 0;
#X connect 88 0 65 0;
#X connect 89 0 67 0;
#X connect 90 0 69 0;
#X connect 91 0 71 0;
#X connect 92 0 73 0;
#X connect 93 0 75 0;
#X connect 94 0 77 0;
#X connect 95 0 79 0;
#X connect 96 0 108 0;
#X connect 98 0 109 0;
#X connect 100 0 110 0;
#X connect 102 0 111 0;
#X connect 104 0 112 0;
#X connect 106 0 113 0;
#X connect 108 0 97 0;
#X connect 109 0 99 0;
#X connect 110 0 101 0;
#X connect 111 0 103 0;
#X connect 112 0 105 0;
#X connect 113 0 107 0;
#X connect 114 0 116 0;
#X connect 116 0 115 0;
#X connect 117 0 118 0;
#X connect 117 1 118 1;
#X connect 118 0 119 0;
#X connect 118 1 119 1;
#X connect 119 0 120 0;
#X connect 120 0 0 0;
#X connect 120 1 3 0;
#X connect 120 2 5 0;
#X connect 120 3 7 0;
#X connect 120 4 9 0;
#X connect 120 5 11 0;
#X connect 120 6 13 0;
#X connect 120 7 15 0;
#X connect 120 8 17 0;
#X connect 120 9 19 0;
#X connect 120 10 21 0;
#X connect 120 11 23 0;
#X connect 120 12 25 0;
#X connect 120 13 27 0;
#X connect 120 14 29 0;
#X connect 120 15 31 0;
#X connect 120 16 48 0;
#X connect 120 17 50 0;
#X connect 120 18 52 0;
#X connect 120 19 54 0;
#X connect 120 20 56 0;
#X connect 120 21 58 0;
#X connect 120 22 60 0;
#X connect 120 23 62 0;
#X connect 120 24 64 0;
#X connect 120 25 66 0;
#X connect 120 26 68 0;
#X connect 120 27 70 0;
#X connect 120 28 72 0;
#X connect 120 29 74 0;
#X connect 120 30 76 0;
#X connect 120 31 78 0;
#X connect 122 0 145 0;
#X connect 123 0 124 0;
#X connect 123 1 124 1;
#X connect 124 0 121 0;
#X connect 125 0 123 0;
#X connect 125 1 126 0;
#X connect 126 0 123 1;
#X connect 128 0 142 0;
#X connect 129 0 131 0;
#X connect 129 1 132 1;
#X connect 131 0 132 0;
#X connect 132 0 120 0;
#X connect 133 0 129 0;
#X connect 133 1 134 0;
#X connect 134 0 133 0;
#X connect 135 0 136 0;
#X connect 136 0 137 0;
#X connect 136 1 143 0;
#X connect 137 0 138 0;
#X connect 138 0 139 0;
#X connect 139 0 141 0;
#X connect 139 1 140 0;
#X connect 140 0 138 1;
#X connect 141 0 133 0;
#X connect 142 0 133 0;
#X connect 142 1 135 0;
#X connect 143 0 138 1;
#X connect 145 0 125 0;
#X connect 145 1 144 0;
#X coords 0 -1 1 1 490 50 2 10 200;
#X restore 95 204 pd BUTTONS;
#X floatatom 95 161 5 0 0 0 button_id - -;
#X floatatom 135 161 5 0 0 1 value - -;
#X obj 95 182 pack;
#X text 151 115 list of pairs (but_id+value) \;;
#X msg 71 117 0 1 9 1 18 1;
#X msg 33 87 clear;
#X obj 95 259 outlet;
#X connect 0 0 7 0;
#X connect 1 0 3 0;
#X connect 2 0 3 1;
#X connect 3 0 0 0;
#X connect 5 0 0 0;
#X connect 6 0 0 0;
#X coords 0 -1 1 1 500 60 2 90 200;
#X restore 15 260 pd BUTTONS;
#X obj 10 336 cnv 15 351 50 empty empty FADERS 5 10 0 12 -233017 -66577
0;
#N canvas 532 181 729 387 FADERS 0;
#X obj 58 93 FADERS ------------;
#X floatatom 58 155 5 0 0 0 - - -;
#X obj 58 49 tgl 15 0 empty empty empty 17 7 0 10 -262144 -1 -1 1 1
;
#X msg 58 69 screen \$1;
#X obj 58 21 r \$0_fader2screen;
#X floatatom 98 155 5 0 0 0 - - -;
#X floatatom 138 155 5 0 0 0 - - -;
#X floatatom 178 155 5 0 0 0 - - -;
#X floatatom 218 155 5 0 0 0 - - -;
#X floatatom 258 155 5 0 0 0 - - -;
#X floatatom 298 155 5 0 0 0 - - -;
#X floatatom 338 155 5 0 0 0 - - -;
#X obj 33 337 outlet;
#X obj 93 337 outlet;
#X obj 153 337 outlet;
#X obj 213 337 outlet;
#X obj 273 337 outlet;
#X obj 333 337 outlet;
#X obj 393 337 outlet;
#X obj 453 337 outlet;
#X obj 58 124 t f f;
#X obj 98 124 t f f;
#X obj 138 124 t f f;
#X obj 178 124 t f f;
#X obj 218 124 t f f;
#X obj 258 124 t f f;
#X obj 298 124 t f f;
#X obj 338 124 t f f;
#X obj 155 211 spigot;
#X obj 215 211 spigot;
#X obj 275 211 spigot;
#X obj 335 211 spigot;
#X obj 395 211 spigot;
#X obj 455 211 spigot;
#X obj 515 211 spigot;
#X obj 575 211 spigot;
#X obj 155 233 / 127;
#X obj 215 233 / 127;
#X obj 275 233 / 127;
#X obj 335 233 / 127;
#X obj 395 233 / 127;
#X obj 455 233 / 127;
#X obj 515 233 / 127;
#X obj 575 233 / 127;
#X msg 155 255 0 \$1;
#X msg 215 255 1 \$1;
#X msg 275 255 2 \$1;
#X msg 335 255 3 \$1;
#X msg 395 255 4 \$1;
#X msg 455 255 5 \$1;
#X msg 515 255 6 \$1;
#X msg 575 255 7 \$1;
#X obj 555 148 tgl 15 0 empty empty empty 17 7 0 10 -262144 -1 -1 1
1;
#X obj 555 126 r _OSC_offon;
#X obj 532 318 s _OSC_from_pd;
#X obj 532 292 oscformat ZeRO fad;
#X connect 0 0 20 0;
#X connect 0 1 21 0;
#X connect 0 2 22 0;
#X connect 0 3 23 0;
#X connect 0 4 24 0;
#X connect 0 5 25 0;
#X connect 0 6 26 0;
#X connect 0 7 27 0;
#X connect 1 0 12 0;
#X connect 2 0 3 0;
#X connect 3 0 0 0;
#X connect 4 0 2 0;
#X connect 5 0 13 0;
#X connect 6 0 14 0;
#X connect 7 0 15 0;
#X connect 8 0 16 0;
#X connect 9 0 17 0;
#X connect 10 0 18 0;
#X connect 11 0 19 0;
#X connect 20 0 1 0;
#X connect 20 1 28 0;
#X connect 21 0 5 0;
#X connect 21 1 29 0;
#X connect 22 0 6 0;
#X connect 22 1 30 0;
#X connect 23 0 7 0;
#X connect 23 1 31 0;
#X connect 24 0 8 0;
#X connect 24 1 32 0;
#X connect 25 0 9 0;
#X connect 25 1 33 0;
#X connect 26 0 10 0;
#X connect 26 1 34 0;
#X connect 27 0 11 0;
#X connect 27 1 35 0;
#X connect 28 0 36 0;
#X connect 29 0 37 0;
#X connect 30 0 38 0;
#X connect 31 0 39 0;
#X connect 32 0 40 0;
#X connect 33 0 41 0;
#X connect 34 0 42 0;
#X connect 35 0 43 0;
#X connect 36 0 44 0;
#X connect 37 0 45 0;
#X connect 38 0 46 0;
#X connect 39 0 47 0;
#X connect 40 0 48 0;
#X connect 41 0 49 0;
#X connect 42 0 50 0;
#X connect 43 0 51 0;
#X connect 44 0 55 0;
#X connect 45 0 55 0;
#X connect 46 0 55 0;
#X connect 47 0 55 0;
#X connect 48 0 55 0;
#X connect 49 0 55 0;
#X connect 50 0 55 0;
#X connect 51 0 55 0;
#X connect 52 0 35 1;
#X connect 52 0 34 1;
#X connect 52 0 33 1;
#X connect 52 0 32 1;
#X connect 52 0 31 1;
#X connect 52 0 30 1;
#X connect 52 0 29 1;
#X connect 52 0 28 1;
#X connect 53 0 52 0;
#X connect 55 0 54 0;
#X coords 0 -1 1 1 325 25 2 50 150;
#X restore 25 355 pd FADERS;
#N canvas 1 78 523 313 SCREENS 0;
#X obj 38 216 SCREENS;
#X msg 38 97 top 8 text fad_1;
#X msg 48 117 top 9 text fad_2;
#X msg 58 137 top 10 text fad_3;
#X msg 68 157 top 11 text fad_4;
#X msg 178 97 top 12 text fad_5;
#X msg 188 117 top 13 text fad_6;
#X msg 198 137 top 14 text fad_7;
#X msg 208 157 top 15 text fad_8;
#X obj 39 28 r \$0_init;
#X text 126 31 initialize RIGHT SCREENS \; this is needed so that when
buttons and faders on the right are touched \, the screens aren't empty
or displaying 'wrong' messages \;;
#X connect 1 0 0 0;
#X connect 2 0 0 0;
#X connect 3 0 0 0;
#X connect 4 0 0 0;
#X connect 5 0 0 0;
#X connect 6 0 0 0;
#X connect 7 0 0 0;
#X connect 8 0 0 0;
#X connect 9 0 1 0;
#X connect 9 0 8 0;
#X connect 9 0 7 0;
#X connect 9 0 6 0;
#X connect 9 0 5 0;
#X connect 9 0 4 0;
#X connect 9 0 3 0;
#X connect 9 0 2 0;
#X restore 10 423 pd SCREENS;
#X obj 25 120 KNOBS ------------;
#X obj 451 13 bng 15 250 50 0 \$0_initialize_patch empty initialize
17 7 0 10 -258113 -1 -1;
#N canvas 1 105 289 118 CREDITS 0;
#X text 31 32 Mario Buoninfante \; mario.buoninfante@gmail.com \; GPL
2.1 - 2019 \;;
#X restore 10 530 pd CREDITS;
#X obj 451 33 bng 15 250 50 0 \$0_connections empty connections 17
7 0 10 -204786 -1 -1;
#N canvas 1 105 240 95 CONNECTIONS 0;
#X obj 3 13 cnv 15 225 60 empty empty empty 20 12 0 14 -261682 -66577
0;
#X text 6 15 CONNECTIONS \; \; Pd MIDI OUT 1 --> SL MkII MIDI 2 IN
\; SL MkII MIDI 2 OUT --> Pd MIDI IN 1 \;;
#X restore 10 509 pd CONNECTIONS;
#N canvas 1 78 469 214 UTILS 0;
#X obj 48 74 r \$0_connections;
#X msg 48 96 vis 1;
#X obj 48 118 s pd-CONNECTIONS;
#X connect 0 0 1 0;
#X connect 1 0 2 0;
#X restore 10 468 pd UTILS;
#X obj 451 53 bng 15 250 50 0 \$0_select_device empty MIDI_ports 17
7 0 10 -260097 -1 -1;
#N canvas 1 78 634 459 OSC 0;
#X obj 27 182 netsend -u -b;
#X obj 81 41 tgl 15 0 empty empty empty 17 7 0 10 -262144 -1 -1 1 1
;
#X obj 81 81 sel 0 1;
#X text 351 29 OPEN SOUND CONTROL \; \; send port: 3000 \; recv port:
3001 \;;
#X obj 177 133 list prepend send;
#X obj 177 155 list trim;
#X obj 177 79 r _OSC_from_pd;
#X msg 37 146 disconnect;
#X msg 27 126 connect localhost 3000;
#X obj 81 61 change -1;
#X obj 81 19 r _OSC_offon;
#X obj 292 220 spigot;
#X obj 177 106 t a a;
#X obj 325 200 tgl 15 0 empty empty empty 17 7 0 10 -262144 -1 -1 1
1;
#X obj 292 242 oscparse;
#X obj 292 264 route list;
#X obj 292 286 route ZeRO;
#X obj 292 308 s _ZeRO;
#X obj 325 180 r \$0_ZeRO_inner_msg;
#X connect 1 0 9 0;
#X connect 2 0 7 0;
#X connect 2 1 8 0;
#X connect 4 0 5 0;
#X connect 5 0 0 0;
#X connect 6 0 12 0;
#X connect 7 0 0 0;
#X connect 8 0 0 0;
#X connect 9 0 2 0;
#X connect 10 0 1 0;
#X connect 11 0 14 0;
#X connect 12 0 4 0;
#X connect 12 1 11 0;
#X connect 13 0 11 1;
#X connect 14 0 15 0;
#X connect 15 0 16 0;
#X connect 16 0 17 0;
#X connect 18 0 13 0;
#X restore 10 488 pd OSC;
#X obj 451 81 tgl 15 0 _OSC_offon empty OSC 17 7 0 10 -191407 -1 -1
1 1;
#X obj 718 145 tgl 15 0 empty empty empty 17 7 0 10 -262144 -1 -1 1
1;
#X obj 685 167 spigot;
#X obj 718 123 r _OSC_offon;
#X obj 635 136 t l l;
#X obj 685 219 s _OSC_from_pd;
#X obj 684 293 tgl 15 0 empty empty empty 17 7 0 10 -262144 -1 -1 1
1;
#X obj 651 315 spigot;
#X obj 684 271 r _OSC_offon;
#X obj 651 367 s _OSC_from_pd;
#X obj 685 193 oscformat ZeRO pad;
#X obj 651 341 oscformat ZeRO but;
#X obj 451 101 tgl 15 0 \$0_ZeRO_inner_msg empty Pd_inner_msg 17 7
0 10 -191407 -1 -1 0 1;
#X connect 1 0 3 0;
#X connect 8 0 29 0;
#X connect 9 0 10 0;
#X connect 9 1 11 0;
#X connect 13 0 32 0;
#X connect 26 0 27 1;
#X connect 27 0 35 0;
#X connect 28 0 26 0;
#X connect 29 0 9 0;
#X connect 29 1 27 0;
#X connect 31 0 32 1;
#X connect 32 0 36 0;
#X connect 33 0 31 0;
#X connect 35 0 30 0;
#X connect 36 0 34 0;
#X coords 0 -1 1 1 530 400 2 2 5;
