#N canvas 34 78 880 547 10;
#X obj 13 246 pack 0 112 10;
#X obj 63 296 pack 0 113 10;
#X obj 113 346 pack 0 114 10;
#X obj 163 396 pack 0 115 10;
#X obj 213 246 pack 0 116 10;
#X obj 263 296 pack 0 117 10;
#X obj 313 346 pack 0 118 10;
#X obj 363 396 pack 0 119 10;
#X floatatom 13 95 5 0 0 2 LED_1 - -;
#X floatatom 63 95 5 0 0 2 LED_2 - -;
#X floatatom 113 95 5 0 0 2 LED_3 - -;
#X floatatom 163 95 5 0 0 2 LED_4 - -;
#X floatatom 213 95 5 0 0 2 LED_5 - -;
#X floatatom 263 95 5 0 0 2 LED_6 - -;
#X floatatom 313 95 5 0 0 2 LED_7 - -;
#X floatatom 363 95 5 0 0 2 LED_8 - -;
#X obj 13 156 min 12;
#X obj 13 178 max 0;
#X obj 13 200 t f f;
#X msg 13 222 set \$1;
#X obj 63 156 min 12;
#X obj 63 178 max 0;
#X obj 63 200 t f f;
#X msg 63 222 set \$1;
#X obj 113 156 min 12;
#X obj 113 178 max 0;
#X obj 113 200 t f f;
#X msg 113 222 set \$1;
#X obj 163 156 min 12;
#X obj 163 178 max 0;
#X obj 163 200 t f f;
#X msg 163 222 set \$1;
#X obj 213 156 min 12;
#X obj 213 178 max 0;
#X obj 213 200 t f f;
#X msg 213 222 set \$1;
#X obj 263 156 min 12;
#X obj 263 178 max 0;
#X obj 263 200 t f f;
#X msg 263 222 set \$1;
#X obj 313 156 min 12;
#X obj 313 178 max 0;
#X obj 313 200 t f f;
#X msg 313 222 set \$1;
#X obj 363 156 min 12;
#X obj 363 178 max 0;
#X obj 363 200 t f f;
#X msg 363 222 set \$1;
#X obj 13 268 s \$0_CC_out;
#X obj 63 318 s \$0_CC_out;
#X obj 113 368 s \$0_CC_out;
#X obj 163 418 s \$0_CC_out;
#X obj 213 268 s \$0_CC_out;
#X obj 263 318 s \$0_CC_out;
#X obj 313 368 s \$0_CC_out;
#X obj 363 418 s \$0_CC_out;
#X obj 13 11 inlet;
#X obj 191 17 r _to_ring;
#X obj 490 276 s \$0_CC_out;
#X obj 490 215 << 4;
#X obj 490 254 pack 0 120 16;
#X obj 490 146 unpack;
#X obj 490 168 swap;
#X obj 527 215 + 120;
#X obj 656 433 r \$0_CC_out;
#X obj 656 455 ctlout;
#X text 534 146 LED_nr + mode \;;
#X obj 13 33 route list mode;
#X obj 13 55 route 0 1 2 3 4 5 6 7;
#X text 626 169 LED RING MODE \; \; 0 standard \; 1 reverse \; 2 bipolar
\; 3 outside-inside convergence \; 4 standard - dot only \;;
#X connect 0 0 48 0;
#X connect 1 0 49 0;
#X connect 2 0 50 0;
#X connect 3 0 51 0;
#X connect 4 0 52 0;
#X connect 5 0 53 0;
#X connect 6 0 54 0;
#X connect 7 0 55 0;
#X connect 8 0 16 0;
#X connect 9 0 20 0;
#X connect 10 0 24 0;
#X connect 11 0 28 0;
#X connect 12 0 32 0;
#X connect 13 0 36 0;
#X connect 14 0 40 0;
#X connect 15 0 44 0;
#X connect 16 0 17 0;
#X connect 17 0 18 0;
#X connect 18 0 19 0;
#X connect 18 1 0 0;
#X connect 19 0 8 0;
#X connect 20 0 21 0;
#X connect 21 0 22 0;
#X connect 22 0 23 0;
#X connect 22 1 1 0;
#X connect 23 0 9 0;
#X connect 24 0 25 0;
#X connect 25 0 26 0;
#X connect 26 0 27 0;
#X connect 26 1 2 0;
#X connect 27 0 10 0;
#X connect 28 0 29 0;
#X connect 29 0 30 0;
#X connect 30 0 31 0;
#X connect 30 1 3 0;
#X connect 31 0 11 0;
#X connect 32 0 33 0;
#X connect 33 0 34 0;
#X connect 34 0 35 0;
#X connect 34 1 4 0;
#X connect 35 0 12 0;
#X connect 36 0 37 0;
#X connect 37 0 38 0;
#X connect 38 0 39 0;
#X connect 38 1 5 0;
#X connect 39 0 13 0;
#X connect 40 0 41 0;
#X connect 41 0 42 0;
#X connect 42 0 43 0;
#X connect 42 1 6 0;
#X connect 43 0 14 0;
#X connect 44 0 45 0;
#X connect 45 0 46 0;
#X connect 46 0 47 0;
#X connect 46 1 7 0;
#X connect 47 0 15 0;
#X connect 56 0 67 0;
#X connect 57 0 67 0;
#X connect 59 0 60 0;
#X connect 60 0 58 0;
#X connect 61 0 62 0;
#X connect 61 1 62 1;
#X connect 62 0 59 0;
#X connect 62 1 63 0;
#X connect 63 0 60 1;
#X connect 64 0 65 0;
#X connect 67 0 68 0;
#X connect 67 1 61 0;
#X connect 67 2 68 0;
#X connect 68 0 8 0;
#X connect 68 1 9 0;
#X connect 68 2 10 0;
#X connect 68 3 11 0;
#X connect 68 4 12 0;
#X connect 68 5 13 0;
#X connect 68 6 14 0;
#X connect 68 7 15 0;
#X coords 0 -1 1 1 390 35 2 10 80;
