#N canvas 1 78 1287 689 10;
#X obj 81 145 moses 64;
#X obj 126 199 -;
#X obj 81 230 +;
#X msg 126 177 64 \$1;
#X msg 283 107 0;
#X obj 81 254 max 0;
#X obj 81 328 t f f f;
#X obj 173 329 / 1023;
#X obj 81 276 min 1023;
#X obj 81 56 ctlin;
#X obj 723 34 loadbang;
#X obj 723 144 \$1;
#X obj 723 196 + 56;
#X obj 723 218 max 56;
#X obj 723 240 min 63;
#X text 754 145 knob (0-7) \;;
#X obj 94 83 == -1;
#X obj 81 118 spigot;
#X obj 41 610 outlet;
#X obj 283 16 inlet;
#X obj 283 80 b;
#X obj 283 129 s \$0_reset;
#X obj 170 216 r \$0_reset;
#X text 172 629 to encoder \; LED ring \;;
#X text 42 629 value \;;
#X obj 262 294 t f f;
#X obj 262 244 - 1;
#X obj 262 269 max 1;
#X obj 811 210 \$2;
#X obj 811 232 moses 1;
#X obj 723 262 s \$0_knob_nr;
#X obj 134 59 r \$0_knob_nr;
#X text 318 154 reset: set value to 0 \; steps: range from 0 to staps-1
\; ---(ie with steps==128 then range=0-127) \;;
#X obj 850 260 s \$0_steps;
#X obj 262 218 r \$0_steps;
#X obj 326 98 s \$0_steps;
#X obj 173 400 int;
#X obj 173 454 spigot;
#X obj 173 610 s _to_ring;
#X msg 173 516 0 \$1;
#X msg 256 483 set \$1 \, adddollar 1;
#X obj 901 232 s \$0_link_to_ring;
#X obj 901 210 \$3;
#X obj 254 369 r \$0_link_to_ring;
#X obj 254 391 tgl 15 0 empty empty empty 17 7 0 10 -262144 -1 -1 1
1;
#X obj 398 98 s \$0_link_to_ring;
#X obj 366 260 r \$0_ring_nr;
#X obj 723 170 t f f;
#X obj 751 296 s \$0_ring_nr;
#X obj 170 239 t f f;
#X obj 173 381 * 11;
#X obj 408 118 s \$0_ring_mode;
#X obj 436 355 r \$0_ring_mode;
#X obj 931 260 \$4;
#X obj 931 312 s \$0_ring_mode;
#X msg 463 419 1;
#X obj 366 282 t f f;
#X msg 393 319 set mode \$1 \, adddollar 1;
#X msg 436 397 mode 0 \$1;
#X obj 931 286 % 5;
#X obj 516 103 s \$0_set;
#X obj 18 198 r \$0_set;
#X obj 173 422 change -1;
#X text 401 629 to encoder \; LED ring \;;
#X obj 1021 260 \$5;
#X obj 1021 312 s \$0_link_to_screen;
#X obj 459 495 r \$0_link_to_screen;
#X obj 402 531 spigot;
#X obj 402 610 s _to_screen;
#X obj 173 305 t f f;
#X obj 402 553 change -1;
#X obj 617 496 r \$0_ring_nr;
#X obj 617 516 t f f;
#X text 611 629 to encoder \; LED ring \;;
#X obj 612 610 s _to_screen;
#X obj 1081 282 s \$0_screen_label;
#X obj 723 59 t b b b b b b;
#X obj 772 496 r \$0_screen_label;
#X obj 1081 260 symbol \$6;
#X obj 575 103 s \$0_screen_label;
#X obj 575 72 symbol;
#X msg 402 582 bottom 0 \$1;
#X msg 627 579 top 0 text \$1;
#X msg 617 537 set bottom \$1 \, adddollar 1;
#X msg 627 557 set top \$1 text \, adddollar 1;
#X obj 101 610 outlet;
#X text 102 629 raw value \;;
#X obj 173 355 t f f;
#X obj 436 376 t f b;
#X obj 173 485 max 1;
#X obj 283 57 route reset steps ring mode set label init;
#X obj 665 41 b;
#X text 1020 10 PATCH ARGS \; \; 1 knob nr \; 2 steps (range from 0
to steps-1) \; 3 link to LED ring (0-1) \; 4 ring mode (0-4) \; 5 link
to screen \; 6 screen label \; \; LED RING MODE \; \; 0 standard \;
1 reverse \; 2 bipolar \; 3 outside-inside convergence \; 4 standard
- dot only \;;
#X obj 81 302 change -1;
#X connect 0 0 2 0;
#X connect 0 1 3 0;
#X connect 1 0 2 0;
#X connect 2 0 5 0;
#X connect 3 0 1 0;
#X connect 4 0 21 0;
#X connect 5 0 8 0;
#X connect 6 0 18 0;
#X connect 6 1 69 0;
#X connect 6 2 2 1;
#X connect 7 0 87 0;
#X connect 8 0 93 0;
#X connect 9 0 17 0;
#X connect 9 1 16 0;
#X connect 10 0 76 0;
#X connect 11 0 47 0;
#X connect 12 0 13 0;
#X connect 13 0 14 0;
#X connect 14 0 30 0;
#X connect 16 0 17 1;
#X connect 17 0 0 0;
#X connect 19 0 90 0;
#X connect 20 0 4 0;
#X connect 22 0 49 0;
#X connect 25 0 8 1;
#X connect 25 1 7 1;
#X connect 26 0 27 0;
#X connect 27 0 25 0;
#X connect 28 0 29 0;
#X connect 29 1 33 0;
#X connect 31 0 16 1;
#X connect 34 0 26 0;
#X connect 36 0 62 0;
#X connect 37 0 89 0;
#X connect 39 0 38 0;
#X connect 40 0 39 0;
#X connect 42 0 41 0;
#X connect 43 0 44 0;
#X connect 44 0 37 1;
#X connect 46 0 56 0;
#X connect 47 0 12 0;
#X connect 47 1 48 0;
#X connect 49 0 2 0;
#X connect 49 1 2 1;
#X connect 50 0 36 0;
#X connect 52 0 88 0;
#X connect 53 0 59 0;
#X connect 55 0 39 0;
#X connect 56 0 40 0;
#X connect 56 1 57 0;
#X connect 57 0 58 0;
#X connect 58 0 38 0;
#X connect 59 0 54 0;
#X connect 61 0 5 0;
#X connect 62 0 37 0;
#X connect 64 0 65 0;
#X connect 66 0 67 1;
#X connect 67 0 70 0;
#X connect 69 0 7 0;
#X connect 69 1 67 0;
#X connect 70 0 81 0;
#X connect 71 0 72 0;
#X connect 72 0 83 0;
#X connect 72 1 84 0;
#X connect 76 0 78 0;
#X connect 76 1 64 0;
#X connect 76 2 53 0;
#X connect 76 3 42 0;
#X connect 76 4 28 0;
#X connect 76 5 11 0;
#X connect 77 0 82 0;
#X connect 78 0 75 0;
#X connect 80 0 79 0;
#X connect 81 0 68 0;
#X connect 82 0 74 0;
#X connect 83 0 81 0;
#X connect 84 0 82 0;
#X connect 87 0 50 0;
#X connect 87 1 85 0;
#X connect 88 0 58 0;
#X connect 88 1 55 0;
#X connect 89 0 39 0;
#X connect 90 0 20 0;
#X connect 90 1 35 0;
#X connect 90 2 45 0;
#X connect 90 3 51 0;
#X connect 90 4 60 0;
#X connect 90 5 80 0;
#X connect 90 6 91 0;
#X connect 91 0 76 0;
#X connect 93 0 6 0;
