#N canvas 1 78 1157 426 10;
#X obj 31 152 ctlin 16;
#X obj 31 174 t f f;
#X obj 58 382 outlet;
#X obj 31 236 spigot;
#X obj 31 280 s _to_screen;
#X obj 64 206 r \$0_to_screen;
#X obj 161 174 t f f;
#X obj 188 382 outlet;
#X obj 161 236 spigot;
#X obj 161 280 s _to_screen;
#X obj 194 206 r \$0_to_screen;
#X obj 291 174 t f f;
#X obj 318 382 outlet;
#X obj 291 236 spigot;
#X obj 291 280 s _to_screen;
#X obj 324 206 r \$0_to_screen;
#X obj 421 174 t f f;
#X obj 448 382 outlet;
#X obj 421 236 spigot;
#X obj 421 280 s _to_screen;
#X obj 454 206 r \$0_to_screen;
#X obj 551 174 t f f;
#X obj 578 382 outlet;
#X obj 551 236 spigot;
#X obj 551 280 s _to_screen;
#X obj 584 206 r \$0_to_screen;
#X obj 681 174 t f f;
#X obj 708 382 outlet;
#X obj 681 236 spigot;
#X obj 681 280 s _to_screen;
#X obj 714 206 r \$0_to_screen;
#X obj 811 174 t f f;
#X obj 838 382 outlet;
#X obj 811 236 spigot;
#X obj 811 280 s _to_screen;
#X obj 844 206 r \$0_to_screen;
#X obj 941 174 t f f;
#X obj 968 382 outlet;
#X obj 941 236 spigot;
#X obj 941 280 s _to_screen;
#X obj 974 206 r \$0_to_screen;
#X obj 161 152 ctlin 17;
#X obj 291 152 ctlin 18;
#X obj 421 152 ctlin 19;
#X obj 551 152 ctlin 20;
#X obj 681 152 ctlin 21;
#X obj 811 152 ctlin 22;
#X obj 941 152 ctlin 23;
#X obj 73 23 inlet;
#X obj 73 45 route screen;
#X obj 73 67 != 0;
#X obj 73 89 s \$0_to_screen;
#X msg 31 258 bottom 8 \$1;
#X msg 161 258 bottom 9 \$1;
#X msg 291 258 bottom 10 \$1;
#X msg 421 258 bottom 11 \$1;
#X msg 551 258 bottom 12 \$1;
#X msg 681 258 bottom 13 \$1;
#X msg 811 258 bottom 14 \$1;
#X msg 941 258 bottom 15 \$1;
#X connect 0 0 1 0;
#X connect 1 0 3 0;
#X connect 1 1 2 0;
#X connect 3 0 52 0;
#X connect 5 0 3 1;
#X connect 6 0 8 0;
#X connect 6 1 7 0;
#X connect 8 0 53 0;
#X connect 10 0 8 1;
#X connect 11 0 13 0;
#X connect 11 1 12 0;
#X connect 13 0 54 0;
#X connect 15 0 13 1;
#X connect 16 0 18 0;
#X connect 16 1 17 0;
#X connect 18 0 55 0;
#X connect 20 0 18 1;
#X connect 21 0 23 0;
#X connect 21 1 22 0;
#X connect 23 0 56 0;
#X connect 25 0 23 1;
#X connect 26 0 28 0;
#X connect 26 1 27 0;
#X connect 28 0 57 0;
#X connect 30 0 28 1;
#X connect 31 0 33 0;
#X connect 31 1 32 0;
#X connect 33 0 58 0;
#X connect 35 0 33 1;
#X connect 36 0 38 0;
#X connect 36 1 37 0;
#X connect 38 0 59 0;
#X connect 40 0 38 1;
#X connect 41 0 6 0;
#X connect 42 0 11 0;
#X connect 43 0 16 0;
#X connect 44 0 21 0;
#X connect 45 0 26 0;
#X connect 46 0 31 0;
#X connect 47 0 36 0;
#X connect 48 0 49 0;
#X connect 49 0 50 0;
#X connect 50 0 51 0;
#X connect 52 0 4 0;
#X connect 53 0 9 0;
#X connect 54 0 14 0;
#X connect 55 0 19 0;
#X connect 56 0 24 0;
#X connect 57 0 29 0;
#X connect 58 0 34 0;
#X connect 59 0 39 0;
