#N canvas 306 132 956 350 10;
#X obj 33 197 outlet;
#X floatatom 33 154 5 0 0 2 - - -;
#X obj 33 22 ctlin 8;
#X obj 93 197 outlet;
#X floatatom 73 154 5 0 0 2 - - -;
#X obj 153 197 outlet;
#X floatatom 113 154 5 0 0 2 - - -;
#X obj 213 197 outlet;
#X floatatom 153 154 5 0 0 2 - - -;
#X obj 273 197 outlet;
#X floatatom 193 154 5 0 0 0 - - -;
#X obj 333 197 outlet;
#X floatatom 233 154 5 0 0 2 - - -;
#X obj 393 197 outlet;
#X floatatom 273 154 5 0 0 2 - - -;
#X obj 453 197 outlet;
#X floatatom 313 154 5 0 0 2 - - -;
#X obj 93 22 ctlin 9;
#X obj 153 22 ctlin 10;
#X obj 213 22 ctlin 11;
#X obj 273 22 ctlin 12;
#X obj 333 22 ctlin 13;
#X obj 393 22 ctlin 14;
#X obj 453 22 ctlin 15;
#X obj 615 286 s _OSC_from_pd;
#X msg 553 129 0 \$1;
#X msg 563 149 1 \$1;
#X msg 573 169 2 \$1;
#X msg 583 189 3 \$1;
#X msg 623 129 4 \$1;
#X msg 633 149 5 \$1;
#X msg 643 169 6 \$1;
#X msg 653 189 7 \$1;
#X obj 472 73 r \$0_OSC_offon;
#X obj 472 95 tgl 15 0 empty empty empty 17 7 0 10 -262144 -1 -1 0
1;
#X obj 33 63 t f f;
#X obj 83 63 t f f;
#X obj 133 63 t f f;
#X obj 183 63 t f f;
#X obj 233 63 t f f;
#X obj 283 63 t f f;
#X obj 333 63 t f f;
#X obj 383 63 t f f;
#X obj 615 230 oscformat ZeRo knob;
#X obj 43 93 spigot;
#X obj 93 93 spigot;
#X obj 143 93 spigot;
#X obj 193 93 spigot;
#X obj 243 93 spigot;
#X obj 293 93 spigot;
#X obj 343 93 spigot;
#X obj 393 93 spigot;
#X obj 43 113 / 127;
#X obj 93 113 / 127;
#X obj 143 113 / 127;
#X obj 193 113 / 127;
#X obj 243 113 / 127;
#X obj 293 113 / 127;
#X obj 343 113 / 127;
#X obj 393 113 / 127;
#X connect 1 0 0 0;
#X connect 2 0 35 0;
#X connect 4 0 3 0;
#X connect 6 0 5 0;
#X connect 8 0 7 0;
#X connect 10 0 9 0;
#X connect 12 0 11 0;
#X connect 14 0 13 0;
#X connect 16 0 15 0;
#X connect 17 0 36 0;
#X connect 18 0 37 0;
#X connect 19 0 38 0;
#X connect 20 0 39 0;
#X connect 21 0 40 0;
#X connect 22 0 41 0;
#X connect 23 0 42 0;
#X connect 25 0 43 0;
#X connect 26 0 43 0;
#X connect 27 0 43 0;
#X connect 28 0 43 0;
#X connect 29 0 43 0;
#X connect 30 0 43 0;
#X connect 31 0 43 0;
#X connect 32 0 43 0;
#X connect 33 0 34 0;
#X connect 34 0 51 1;
#X connect 34 0 50 1;
#X connect 34 0 49 1;
#X connect 34 0 48 1;
#X connect 34 0 47 1;
#X connect 34 0 46 1;
#X connect 34 0 45 1;
#X connect 34 0 44 1;
#X connect 35 0 1 0;
#X connect 35 1 44 0;
#X connect 36 0 4 0;
#X connect 36 1 45 0;
#X connect 37 0 6 0;
#X connect 37 1 46 0;
#X connect 38 0 8 0;
#X connect 38 1 47 0;
#X connect 39 0 10 0;
#X connect 39 1 48 0;
#X connect 40 0 12 0;
#X connect 40 1 49 0;
#X connect 41 0 14 0;
#X connect 41 1 50 0;
#X connect 42 0 16 0;
#X connect 42 1 51 0;
#X connect 43 0 24 0;
#X connect 44 0 52 0;
#X connect 45 0 53 0;
#X connect 46 0 54 0;
#X connect 47 0 55 0;
#X connect 48 0 56 0;
#X connect 49 0 57 0;
#X connect 50 0 58 0;
#X connect 51 0 59 0;
#X connect 52 0 25 0;
#X connect 53 0 26 0;
#X connect 54 0 27 0;
#X connect 55 0 28 0;
#X connect 56 0 29 0;
#X connect 57 0 30 0;
#X connect 58 0 31 0;
#X connect 59 0 32 0;
#X coords 0 -1 1 1 325 25 2 25 150;
