#N canvas 306 132 615 347 10;
#X obj 33 197 outlet;
#X floatatom 33 154 5 0 0 2 - - -;
#X obj 33 122 ctlin 8;
#X obj 93 197 outlet;
#X floatatom 73 154 5 0 0 2 - - -;
#X obj 153 197 outlet;
#X floatatom 113 154 5 0 0 2 - - -;
#X obj 213 197 outlet;
#X floatatom 153 154 5 0 0 2 - - -;
#X obj 273 197 outlet;
#X floatatom 193 154 5 0 0 0 - - -;
#X obj 333 197 outlet;
#X floatatom 233 154 5 0 0 2 - - -;
#X obj 393 197 outlet;
#X floatatom 273 154 5 0 0 2 - - -;
#X obj 453 197 outlet;
#X floatatom 313 154 5 0 0 2 - - -;
#X obj 93 122 ctlin 9;
#X obj 153 122 ctlin 10;
#X obj 213 122 ctlin 11;
#X obj 273 122 ctlin 12;
#X obj 333 122 ctlin 13;
#X obj 393 122 ctlin 14;
#X obj 453 122 ctlin 15;
#X connect 1 0 0 0;
#X connect 2 0 1 0;
#X connect 4 0 3 0;
#X connect 6 0 5 0;
#X connect 8 0 7 0;
#X connect 10 0 9 0;
#X connect 12 0 11 0;
#X connect 14 0 13 0;
#X connect 16 0 15 0;
#X connect 17 0 4 0;
#X connect 18 0 6 0;
#X connect 19 0 8 0;
#X connect 20 0 10 0;
#X connect 21 0 12 0;
#X connect 22 0 14 0;
#X connect 23 0 16 0;
#X coords 0 -1 1 1 325 25 2 25 150;
