#N canvas 365 114 821 619 10;
#X obj 41 379 list append 247;
#X obj 41 401 midiout;
#X symbolatom 41 141 20 0 0 0 - - -;
#X obj 41 162 list fromsymbol;
#X floatatom 163 270 5 0 0 1 cursor_(0-113) - -;
#X obj 163 311 pack;
#X floatatom 203 290 5 0 0 1 LCD_(1-4) - -;
#X obj 41 274 list append 0;
#X text 136 244 end of string \;;
#X obj 163 333 list prepend 1;
#X obj 11 120 bng 15 250 50 0 empty empty empty 17 7 0 10 -262144 -1
-1;
#X obj 41 305 list prepend 1 0 1;
#X obj 203 311 t b f;
#X obj 41 244 list prepend 4;
#X floatatom 265 221 5 0 0 0 - - -;
#X obj 265 242 * 9;
#X obj 350 16 loadbang;
#X obj 350 38 t b b b b;
#X obj 451 92 \$1;
#X obj 434 71 \$2;
#X obj 367 70 symbol \$3;
#X obj 41 357 list prepend 240 0 32 41 3 3 18 0 4 0 2;
#X obj 41 204 list split 8;
#X obj 41 14 inlet;
#X obj 41 118 symbol;
#X obj 350 257 \$4;
#X obj 367 95 t a a;
#X obj 394 147 list trim;
#X obj 394 169 route _float;
#X obj 394 191 t b b;
#X msg 394 213 0;
#X obj 350 279 spigot;
#X msg 424 213 1;
#X obj 350 305 makefilename %s;
#X obj 367 123 spigot 1;
#X obj 41 72 route float;
#X msg 153 172 32 32 32 32 32 32 32 32;
#X obj 536 312 makefilename %d;
#X obj 536 354 t l l;
#X obj 599 371 list length;
#X obj 536 333 list fromsymbol;
#X obj 536 579 list append;
#X obj 599 394 change -1;
#X obj 599 531 list append;
#X obj 599 553 t l l;
#X obj 599 488 until;
#X obj 599 467 t f b;
#X msg 599 416 8 \$1;
#X obj 599 438 -;
#X text 640 324 always generate \; a list of 8 chars \;;
#X msg 599 509 32;
#X obj 41 95 t a b;
#X obj 41 46 route text clear float;
#X text 546 7 PATCH ARGS \; \; 1 offset (0-7) \; 2 screen \; 3 text
\; 4 (if needed - see below) float \; \; SCREENS \; \; 1 top left \;
2 top right \; 3 bottom left \; 4 bottom right \; \; in order to display
a number \; the 3rd arg must be '_float' \; and the 4th arg the number
itself \;;
#X connect 0 0 1 0;
#X connect 2 0 3 0;
#X connect 3 0 22 0;
#X connect 4 0 5 0;
#X connect 5 0 9 0;
#X connect 6 0 12 0;
#X connect 7 0 11 0;
#X connect 9 0 11 1;
#X connect 10 0 2 0;
#X connect 11 0 21 0;
#X connect 12 0 5 0;
#X connect 12 1 5 1;
#X connect 13 0 7 0;
#X connect 14 0 15 0;
#X connect 15 0 4 0;
#X connect 16 0 17 0;
#X connect 17 0 25 0;
#X connect 17 1 20 0;
#X connect 17 2 19 0;
#X connect 17 3 18 0;
#X connect 18 0 14 0;
#X connect 19 0 6 0;
#X connect 20 0 26 0;
#X connect 21 0 0 0;
#X connect 22 0 13 0;
#X connect 22 2 13 0;
#X connect 23 0 52 0;
#X connect 24 0 2 0;
#X connect 25 0 31 0;
#X connect 26 0 34 0;
#X connect 26 1 27 0;
#X connect 27 0 28 0;
#X connect 28 0 29 0;
#X connect 29 0 30 0;
#X connect 29 1 32 0;
#X connect 30 0 34 1;
#X connect 31 0 33 0;
#X connect 32 0 31 1;
#X connect 33 0 2 0;
#X connect 34 0 2 0;
#X connect 35 0 37 0;
#X connect 35 1 51 0;
#X connect 36 0 22 0;
#X connect 37 0 40 0;
#X connect 38 0 41 0;
#X connect 38 1 39 0;
#X connect 39 0 42 0;
#X connect 40 0 38 0;
#X connect 41 0 22 0;
#X connect 42 0 47 0;
#X connect 43 0 44 0;
#X connect 44 0 41 1;
#X connect 44 1 43 1;
#X connect 45 0 50 0;
#X connect 46 0 45 0;
#X connect 46 1 43 1;
#X connect 47 0 48 0;
#X connect 48 0 46 0;
#X connect 50 0 43 0;
#X connect 51 0 24 0;
#X connect 51 1 36 0;
#X connect 52 0 35 0;
#X connect 52 1 36 0;
#X connect 52 2 37 0;
