#N canvas 126 148 1239 355 10;
#X obj 33 172 SCREEN 0 1;
#X obj 103 172 SCREEN 1 1;
#X obj 173 172 SCREEN 2 1;
#X obj 243 172 SCREEN 3 1;
#X obj 313 172 SCREEN 4 1;
#X obj 383 172 SCREEN 5 1;
#X obj 453 172 SCREEN 6 1;
#X obj 523 172 SCREEN 7 1;
#X obj 33 252 SCREEN 0 3;
#X obj 103 252 SCREEN 1 3;
#X obj 173 252 SCREEN 2 3;
#X obj 243 252 SCREEN 3 3;
#X obj 313 252 SCREEN 4 3;
#X obj 383 252 SCREEN 5 3;
#X obj 453 252 SCREEN 6 3;
#X obj 523 252 SCREEN 7 3;
#X obj 637 172 SCREEN 0 2;
#X obj 707 172 SCREEN 1 2;
#X obj 777 172 SCREEN 2 2;
#X obj 847 172 SCREEN 3 2;
#X obj 917 172 SCREEN 4 2;
#X obj 987 172 SCREEN 5 2;
#X obj 1057 172 SCREEN 6 2;
#X obj 1127 172 SCREEN 7 2;
#X obj 1127 252 SCREEN 7 4;
#X obj 1057 252 SCREEN 6 4;
#X obj 987 252 SCREEN 5 4;
#X obj 917 252 SCREEN 4 4;
#X obj 847 252 SCREEN 3 4;
#X obj 777 252 SCREEN 2 4;
#X obj 707 252 SCREEN 1 4;
#X obj 637 252 SCREEN 0 4;
#X obj 13 21 inlet;
#X obj 130 21 r _to_screen;
#X obj 13 43 route list;
#X obj 13 65 route top bottom;
#X obj 13 87 route 0 1 2 3 4 5 6 7 8 9 10 11 12 13 14 15;
#X obj 23 207 route 0 1 2 3 4 5 6 7 8 9 10 11 12 13 14 15;
#X text 337 12 SCREENS nr in [SCREEN] - 2nd arg \; \; 0 top left \;
1 top right \; 2 bottom left \; 3 bottom right \;;
#X connect 32 0 34 0;
#X connect 33 0 34 0;
#X connect 34 0 35 0;
#X connect 34 1 35 0;
#X connect 35 0 36 0;
#X connect 35 1 37 0;
#X connect 36 0 0 0;
#X connect 36 1 1 0;
#X connect 36 2 2 0;
#X connect 36 3 3 0;
#X connect 36 4 4 0;
#X connect 36 5 5 0;
#X connect 36 6 6 0;
#X connect 36 7 7 0;
#X connect 36 8 16 0;
#X connect 36 9 17 0;
#X connect 36 10 18 0;
#X connect 36 11 19 0;
#X connect 36 12 20 0;
#X connect 36 13 21 0;
#X connect 36 14 22 0;
#X connect 36 15 23 0;
#X connect 37 0 8 0;
#X connect 37 1 9 0;
#X connect 37 2 10 0;
#X connect 37 3 11 0;
#X connect 37 4 12 0;
#X connect 37 5 13 0;
#X connect 37 6 14 0;
#X connect 37 7 15 0;
#X connect 37 8 31 0;
#X connect 37 9 30 0;
#X connect 37 10 29 0;
#X connect 37 11 28 0;
#X connect 37 12 27 0;
#X connect 37 13 26 0;
#X connect 37 14 25 0;
#X connect 37 15 24 0;
